<?xml version="1.0" standalone="no"?>
<!DOCTYPE svg PUBLIC "-//W3C//DTD SVG 20010904//EN"
 "http://www.w3.org/TR/2001/REC-SVG-20010904/DTD/svg10.dtd">
<svg version="1.0" xmlns="http://www.w3.org/2000/svg"
 width="607.000000pt" height="607.000000pt" viewBox="0 0 607.000000 607.000000"
 preserveAspectRatio="xMidYMid meet">
<metadata>
Created by potrace 1.14, written by Peter Selinger 2001-2017
</metadata>
<g transform="translate(0.000000,607.000000) scale(0.100000,-0.100000)"
fill="#000000" stroke="none">
<path d="M2800 4584 c-175 -27 -217 -42 -275 -100 -18 -18 -37 -51 -43 -75
-36 -136 -63 -236 -69 -249 -7 -18 -9 -28 -12 -55 -1 -14 -20 -28 -67 -49 -60
-28 -98 -55 -78 -57 120 -11 114 -7 98 -76 -19 -80 -24 -103 -29 -143 -3 -19
-8 -44 -12 -55 -3 -11 -7 -29 -9 -40 -1 -11 -8 -42 -14 -70 -6 -27 -13 -63
-16 -80 -3 -16 -12 -58 -20 -93 -7 -34 -16 -77 -19 -95 -15 -90 -29 -137 -44
-142 -9 -4 -108 -38 -221 -77 -113 -38 -219 -76 -237 -84 -17 -8 -35 -14 -40
-14 -5 0 -44 -14 -88 -31 -101 -39 -304 -90 -372 -94 -78 -4 -143 29 -150 77
-3 21 2 25 56 33 131 19 310 137 391 258 14 20 28 37 33 37 4 0 7 6 7 14 0 7
6 19 14 25 8 7 18 26 21 42 4 16 10 29 15 29 30 0 56 263 37 379 -23 145 -97
264 -216 352 -177 130 -419 195 -620 168 -69 -9 -214 -55 -291 -92 -141 -68
-320 -217 -372 -309 -12 -21 -25 -38 -30 -38 -4 0 -8 -7 -8 -16 0 -9 -8 -28
-18 -42 -20 -29 -66 -154 -78 -212 -4 -19 -10 -42 -12 -50 -10 -32 -13 -298
-4 -350 17 -96 47 -206 73 -267 10 -24 15 -43 11 -43 -4 0 -2 -4 3 -8 6 -4 21
-27 34 -52 13 -25 45 -76 70 -113 25 -38 55 -83 66 -100 11 -18 27 -42 35 -52
21 -27 135 -125 191 -163 84 -57 371 -172 469 -188 8 -1 26 -5 40 -9 41 -10
186 -17 325 -16 129 1 164 3 260 16 58 8 109 13 180 20 28 2 79 9 115 14 36 6
79 13 95 15 17 2 30 5 30 6 0 1 18 3 40 4 22 2 49 6 60 9 11 4 43 9 70 12 28
3 61 7 75 10 14 3 45 8 70 11 25 3 52 7 60 9 8 2 35 7 60 10 25 3 56 8 70 10
14 3 48 7 75 10 28 3 61 8 75 10 14 2 48 7 75 10 28 3 64 7 82 9 17 3 64 7
105 11 40 3 91 9 113 12 60 9 392 9 455 0 152 -21 254 -47 347 -88 24 -11 45
-19 47 -19 3 0 70 -31 148 -69 165 -81 208 -117 321 -270 106 -146 132 -184
205 -310 74 -126 134 -201 161 -201 46 0 84 87 86 197 3 94 10 109 89 187 60
59 93 87 133 113 15 10 53 37 85 60 31 24 59 43 63 43 4 0 19 8 33 19 15 10
68 40 117 65 139 73 346 183 472 253 35 19 66 40 70 46 15 25 -174 156 -235
163 -33 3 -59 -10 -97 -51 -78 -83 -119 -83 -250 -1 -63 40 -341 229 -362 246
-7 5 -15 10 -19 10 -3 0 -54 28 -113 63 -290 172 -723 369 -881 401 -14 3 -56
12 -95 21 -118 26 -220 44 -300 50 -42 4 -86 9 -98 12 -58 13 -587 4 -667 -12
-14 -3 -45 -8 -70 -11 -45 -6 -63 -9 -110 -19 -14 -2 -38 -7 -55 -10 -16 -3
-54 -11 -82 -19 -54 -15 -62 -13 -58 15 7 41 18 137 19 162 0 15 3 27 6 27 3
0 5 12 6 28 0 28 11 121 18 157 9 49 20 131 18 138 -2 5 2 34 7 65 6 32 12 74
13 95 2 31 6 39 28 44 14 3 30 8 35 12 6 3 15 6 20 8 6 1 26 7 45 14 19 7 54
19 78 27 23 8 42 18 42 23 0 7 -80 5 -177 -6 -23 -2 -45 0 -48 5 -5 8 17 163
41 290 22 113 64 153 158 152 97 -1 189 -59 165 -104 -10 -18 -9 -19 18 -5 33
18 124 107 118 117 -10 17 -149 50 -185 44z"/>
<path d="M4300 4358 c-71 -51 -71 -50 -24 -141 23 -45 57 -118 74 -162 18 -44
40 -98 49 -120 32 -72 32 -75 8 -76 -92 -2 -195 -49 -265 -119 -63 -62 -94
-136 -95 -226 -1 -59 3 -78 25 -116 42 -70 60 -81 134 -80 62 1 138 50 246
157 81 80 92 107 94 228 1 60 -2 120 -7 135 -5 15 -20 65 -33 112 -14 47 -49
158 -80 246 -31 89 -56 169 -56 178 0 24 -19 19 -70 -16z m156 -560 c10 -23
20 -46 20 -50 1 -4 2 -9 4 -10 15 -19 18 -141 4 -175 -16 -41 -68 -98 -113
-125 -20 -12 -38 -25 -41 -28 -12 -16 -55 -18 -81 -4 -64 33 -75 133 -28 246
35 83 144 186 200 188 9 0 24 -18 35 -42z"/>
<path d="M3058 4076 c-18 -6 -57 -11 -86 -11 -45 1 -53 -2 -57 -20 -3 -11 -13
-63 -24 -115 -19 -94 -101 -357 -122 -394 -23 -39 9 -33 69 14 48 38 70 64 98
117 19 39 46 81 60 96 13 14 24 28 24 31 0 2 17 22 38 43 101 100 128 116 212
128 44 7 163 56 173 72 3 4 -12 9 -34 10 -21 2 -54 9 -73 17 -31 13 -37 12
-72 -8 -22 -12 -50 -31 -63 -42 -40 -33 -156 -151 -173 -176 -9 -12 -19 -20
-23 -16 -4 4 0 19 9 33 9 14 14 25 11 25 -3 0 3 17 13 38 11 20 22 51 26 67 4
17 18 46 31 66 25 39 19 43 -37 25z"/>
<path d="M3979 3967 c-163 -30 -323 -86 -416 -146 -107 -69 -206 -202 -218
-290 -9 -74 120 -83 242 -16 37 20 72 43 78 49 11 14 92 79 112 89 11 7 -18
-97 -37 -134 -17 -33 -22 -86 -9 -95 17 -10 189 -13 195 -3 3 5 -7 11 -21 15
-26 6 -26 8 -21 78 6 79 5 78 29 159 27 89 80 197 124 252 l40 51 -27 -1 c-15
0 -47 -4 -71 -8z m-124 -104 c-8 -26 -20 -65 -25 -85 -11 -40 -120 -158 -146
-158 -8 0 -14 -4 -14 -9 0 -14 -93 -70 -130 -77 l-33 -7 8 49 c7 52 31 104 77
171 34 50 88 103 105 103 6 0 13 4 15 8 6 16 83 48 120 51 l37 2 -14 -48z"/>
<path d="M1865 3953 c-11 -2 -30 -15 -42 -28 -30 -32 -105 -156 -99 -163 3 -3
6 -1 6 5 0 8 41 33 53 33 11 0 1 -54 -23 -123 -40 -117 -41 -186 -2 -262 17
-34 27 -45 66 -70 33 -22 45 -25 101 -29 78 -6 139 47 200 171 20 41 38 82 40
91 3 10 9 36 15 60 17 71 15 117 -9 162 -48 92 -136 152 -230 156 -31 2 -65 0
-76 -3z m70 -160 c98 -42 169 -109 180 -172 8 -44 8 -45 5 -51 -1 -3 -3 -19
-5 -37 -2 -18 -12 -46 -22 -64 -17 -29 -20 -31 -66 -25 -27 3 -62 12 -79 21
-17 8 -35 15 -40 15 -18 0 -61 48 -63 71 -2 13 -8 42 -14 64 -12 47 -6 171 9
190 13 16 39 12 95 -12z"/>
<path d="M4960 3935 c-26 -27 -122 -95 -152 -107 -24 -10 -23 -28 1 -23 36 7
146 37 166 45 85 35 135 60 135 68 0 8 -94 42 -117 42 -5 0 -20 -11 -33 -25z"/>
<path d="M4710 3608 c-52 -68 -96 -125 -99 -128 -24 -21 -87 -134 -90 -162 -1
-5 -2 -11 -2 -15 -3 -20 4 -49 18 -70 26 -39 70 -55 156 -57 44 -2 82 -7 85
-13 4 -6 31 -24 61 -38 45 -23 66 -27 124 -26 38 1 72 3 76 5 3 2 23 7 44 10
22 3 58 11 82 17 24 6 49 9 55 7 6 -2 -25 -40 -69 -85 -85 -87 -86 -91 -30
-126 15 -9 55 -27 90 -41 56 -22 61 -23 40 -6 -20 17 -22 24 -13 50 37 105
248 310 370 360 l34 13 -32 14 c-18 7 -80 25 -139 40 -89 22 -128 27 -246 27
-77 0 -155 -3 -173 -7 -61 -14 -157 -57 -192 -87 -48 -41 -49 -41 -74 -74 -18
-23 -28 -28 -47 -22 -51 13 -64 33 -64 94 0 54 21 122 37 122 5 0 8 5 8 11 0
11 65 99 106 143 5 6 32 38 58 70 l48 59 -59 18 c-32 10 -61 19 -64 19 -3 0
-48 -55 -99 -122z m683 -264 l27 -15 -57 -61 c-59 -61 -124 -99 -193 -112 -19
-3 -46 -8 -60 -11 -70 -14 -88 -17 -124 -16 -22 0 -43 6 -47 13 -9 14 29 70
68 101 13 10 29 24 36 30 73 68 276 109 350 71z"/>
</g>
</svg>
